USFL
nRows=119
nColumns=2
inDegrees=yes
endheader
time	soleus_r	
2.71976	 50.726283	
2.79133	 50.678722	
2.8629	 50.817722	
2.93448	 50.507310	
3.00605	 50.626351	
3.07762	 50.578944	
3.14919	 50.490925	
3.22077	 50.603653	
3.29234	 50.611307	
3.36391	 50.601381	
3.43548	 50.738093	
3.50706	 50.664573	
3.57863	 50.626871	
3.6502	 50.556091	
3.72177	 50.580795	
3.79335	 50.552679	
3.86492	 50.566670	
3.93649	 50.548853	
4.00806	 50.648812	
4.07964	 51.032597	
4.15121	 50.758981	
4.22278	 50.650963	
4.29435	 50.895506	
4.36593	 51.044345	
4.4375	 50.781612	
4.50907	 50.671034	
4.58065	 50.628624	
4.65222	 50.607510	
4.72379	 50.543966	
4.79536	 50.563656	
4.86694	 50.644632	
4.93851	 50.628028	
5.01008	 50.601671	
5.08165	 50.713973	
5.15323	 51.211025	
5.2248	 50.602603	
5.29637	 36.888584	
5.36794	 36.945687	
5.43952	 33.139452	
5.51109	 32.555983	
5.58266	 29.096383	
5.65423	 28.746185	
5.72581	 28.660079	
5.79738	 28.729981	
5.86895	 28.310151	
5.94052	 27.170705	
6.0121	 27.174971	
6.08367	 26.916471	
6.15524	 26.901087	
6.22681	 26.558259	
6.29839	 26.482871	
6.36996	 26.541582	
6.44153	 26.513985	
6.5131	 26.343878	
6.58468	 26.103652	
6.65625	 26.160041	
6.72782	 26.187166	
6.7994	 25.889082	
6.87097	 25.773803	
6.94254	 25.711353	
7.01411	 25.732682	
7.08569	 25.861561	
7.15726	 26.103572	
7.22883	 25.977875	
7.3004	 25.946124	
7.37198	 26.258585	
7.44355	 26.121803	
7.51512	 26.103128	
7.58669	 25.880697	
7.65827	 25.833030	
7.72984	 25.928654	
7.80141	 25.831505	
7.87298	 25.699779	
7.94456	 25.697556	
8.01613	 25.611787	
8.0877	 25.583027	
8.15927	 25.822185	
8.23085	 25.461905	
8.30242	 25.425831	
8.37399	 25.590419	
8.44556	 25.737035	
8.51714	 25.682015	
8.58871	 25.631233	
8.66028	 25.677139	
8.73185	 25.415962	
8.80343	 25.295280	
8.875	 25.370901	
8.94657	 25.410155	
9.01815	 25.458364	
9.08972	 25.391008	
9.16129	 25.424555	
9.23286	 25.438190	
9.30444	 25.606901	
9.37601	 25.599027	
9.44758	 25.655740	
9.51915	 25.647217	
9.59073	 25.683782	
9.6623	 25.781114	
9.73387	 25.855247	
9.80544	 25.894372	
9.87702	 26.049202	
9.94859	 25.869985	
10.0202	 25.905454	
10.0917	 28.684190	
10.1633	 31.696370	
10.2349	 31.126851	
10.3065	 36.295762	
10.378	 40.198111	
10.4496	 40.521181	
10.5212	 40.864261	
10.5927	 40.644373	
10.6643	 40.898223	
10.7359	 41.013488	
10.8075	 41.063263	
10.879	 41.177454	
10.9506	 41.287716	
11.0222	 41.275721	
11.0937	 41.486233	
11.1653	 41.446879	
